<svg viewBox="0 0 500 200" xmlns="http://www.w3.org/2000/svg">
  <path d="M 72.529 100.211 L 65.937 137.418 L 79.047 139.395 L 78.315 143.277 L 39.203 143.277 L 39.936 139.395 L 51.801 137.418 L 67.109 50.845 L 54.804 48.941 L 55.536 45.059 L 94.501 45.059 Q 110.541 45.059 118.964 51.138 Q 127.387 57.217 127.387 68.863 Q 127.387 92.007 101.752 98.16 L 118.378 137.418 L 129.145 139.395 L 128.412 143.277 L 105.854 143.277 L 87.836 100.211 Z M 85.126 93.619 Q 98.456 93.619 105.671 87.283 Q 112.885 80.948 112.885 69.302 Q 112.885 51.651 91.938 51.651 L 81.098 51.651 L 73.7 93.619 Z M 150.009 133.682 Q 150.009 158.511 166.415 169.058 L 165.317 175.211 Q 150.156 166.348 143.527 155.069 Q 136.899 143.79 136.899 127.676 Q 136.899 114.786 140.231 99.881 Q 143.564 84.976 149.606 73.99 Q 155.649 63.004 164.951 54.764 Q 174.252 46.524 189.267 39.2 L 188.168 45.352 Q 178.427 50.479 171.835 58.279 Q 165.243 66.08 160.922 76.553 Q 156.601 87.027 153.305 105.045 Q 150.009 123.062 150.009 133.682 Z M 239.374 138.15 L 247.65 139.981 L 247.064 143.277 L 226.19 143.277 L 228.314 131.851 Q 215.937 144.815 205.683 144.815 Q 196.82 144.815 191.437 138.297 Q 186.054 131.778 186.054 120.352 Q 186.054 107.535 191.657 96.365 Q 197.26 85.196 206.635 78.934 Q 216.01 72.672 226.996 72.672 Q 235.858 72.672 243.695 75.748 L 246.991 73.257 L 250.946 73.257 Z M 237.25 81.973 Q 234.394 79.996 231.903 79.227 Q 229.413 78.458 225.751 78.458 Q 218.427 78.458 212.311 83.987 Q 206.195 89.517 202.68 98.892 Q 199.164 108.267 199.164 118.448 Q 199.164 126.285 202.387 130.972 Q 205.609 135.66 211.176 135.66 Q 219.452 135.66 229.267 125.479 Z M 284.633 140.201 Q 284.633 149.796 278.554 156.497 Q 272.475 163.199 261.562 166.348 L 261.562 160.709 Q 275.185 156.387 275.185 148.404 Q 275.185 146.353 273.757 145.328 Q 272.329 144.302 270.607 143.24 Q 268.886 142.178 267.458 140.604 Q 266.03 139.029 266.03 135.953 Q 266.03 131.998 268.52 129.91 Q 271.01 127.823 274.892 127.823 Q 279.36 127.823 281.997 131.119 Q 284.633 134.415 284.633 140.201 Z M 353.916 44.254 L 344.175 42.496 L 344.761 39.2 L 366.733 39.2 L 361.314 71.5 Q 360.068 79.849 358.457 85.635 Q 364.316 79.63 370.505 76.114 Q 376.694 72.598 381.895 72.598 Q 391.05 72.598 396.543 79.153 Q 402.036 85.709 402.036 97.061 Q 402.036 109.659 396.58 120.828 Q 391.123 131.998 381.528 138.37 Q 371.934 144.742 360.581 144.742 Q 354.136 144.742 347.947 143.094 Q 341.758 141.446 337.144 138.589 Z M 349.741 135.44 Q 353.989 138.956 361.533 138.956 Q 369.004 138.956 375.339 133.426 Q 381.675 127.896 385.3 118.558 Q 388.926 109.219 388.926 98.965 Q 388.926 90.762 385.52 86.258 Q 382.114 81.754 376.401 81.754 Q 372.08 81.754 367.063 84.61 Q 362.046 87.466 357.505 91.934 Z M 399.479 175.211 L 400.578 169.058 Q 410.173 164.005 416.655 156.314 Q 423.137 148.624 427.385 138.589 Q 431.633 128.555 435.148 110.611 Q 438.664 92.667 438.664 80.728 Q 438.664 67.984 434.599 59.305 Q 430.534 50.626 422.258 45.352 L 423.356 39.2 Q 438.884 48.428 445.402 59.561 Q 451.921 70.694 451.921 86.734 Q 451.921 98.965 448.588 113.98 Q 445.256 128.995 439.177 140.164 Q 433.097 151.334 423.722 159.647 Q 414.347 167.96 399.479 175.211 Z"></path>
</svg>